<mxfile host="app.diagrams.net" modified="2023-12-29T07:08:01.171Z" agent="Mozilla/5.0 (Macintosh; Intel Mac OS X 10_15_7) AppleWebKit/537.36 (KHTML, like Gecko) Chrome/120.0.0.0 Safari/537.36" version="22.1.15" etag="czJ-ghuCoeqL20naGY_m" type="github">
  <diagram name="ページ1" id="YYQGBsgMf38KyFam8Smt">
    <mxGraphModel>
      <root>
        <mxCell id="0" />
        <mxCell id="1" parent="0" />
      </root>
    </mxGraphModel>
  </diagram>
</mxfile>
